%TF.GenerationSoftware,KiCad,Pcbnew,9.0.0*%
%TF.CreationDate,2025-07-25T23:50:21+02:00*%
%TF.ProjectId,xioboxconn_empty,78696f62-6f78-4636-9f6e-6e5f656d7074,rev?*%
%TF.SameCoordinates,PX73b0b30PY6adbf50*%
%TF.FileFunction,Soldermask,Bot*%
%TF.FilePolarity,Negative*%
%FSLAX46Y46*%
G04 Gerber Fmt 4.6, Leading zero omitted, Abs format (unit mm)*
G04 Created by KiCad (PCBNEW 9.0.0) date 2025-07-25 23:50:21*
%MOMM*%
%LPD*%
G01*
G04 APERTURE LIST*
%ADD10C,0.200000*%
%ADD11R,0.500000X2.540000*%
G04 APERTURE END LIST*
D10*
X4025000Y11227000D02*
X6325000Y11227000D01*
X6325000Y9927000D01*
X4025000Y9927000D01*
X4025000Y11227000D01*
G36*
X4025000Y11227000D02*
G01*
X6325000Y11227000D01*
X6325000Y9927000D01*
X4025000Y9927000D01*
X4025000Y11227000D01*
G37*
X4025000Y-2616000D02*
X6325000Y-2616000D01*
X6325000Y-3916000D01*
X4025000Y-3916000D01*
X4025000Y-2616000D01*
G36*
X4025000Y-2616000D02*
G01*
X6325000Y-2616000D01*
X6325000Y-3916000D01*
X4025000Y-3916000D01*
X4025000Y-2616000D01*
G37*
X30441000Y11227000D02*
X32741000Y11227000D01*
X32741000Y9927000D01*
X30441000Y9927000D01*
X30441000Y11227000D01*
G36*
X30441000Y11227000D02*
G01*
X32741000Y11227000D01*
X32741000Y9927000D01*
X30441000Y9927000D01*
X30441000Y11227000D01*
G37*
X30441000Y-2601000D02*
X32741000Y-2601000D01*
X32741000Y-3901000D01*
X30441000Y-3901000D01*
X30441000Y-2601000D01*
G36*
X30441000Y-2601000D02*
G01*
X32741000Y-2601000D01*
X32741000Y-3901000D01*
X30441000Y-3901000D01*
X30441000Y-2601000D01*
G37*
D11*
%TO.C,J3*%
X30480000Y15240000D03*
%TD*%
%TO.C,J2*%
X0Y15240000D03*
%TD*%
M02*
