%TF.GenerationSoftware,KiCad,Pcbnew,9.0.0*%
%TF.CreationDate,2025-07-25T23:50:21+02:00*%
%TF.ProjectId,xioboxconn_empty,78696f62-6f78-4636-9f6e-6e5f656d7074,rev?*%
%TF.SameCoordinates,PX73b0b30PY6adbf50*%
%TF.FileFunction,Legend,Top*%
%TF.FilePolarity,Positive*%
%FSLAX46Y46*%
G04 Gerber Fmt 4.6, Leading zero omitted, Abs format (unit mm)*
G04 Created by KiCad (PCBNEW 9.0.0) date 2025-07-25 23:50:21*
%MOMM*%
%LPD*%
G01*
G04 APERTURE LIST*
%ADD10C,0.100000*%
G04 APERTURE END LIST*
D10*
X-43537616Y34834581D02*
X-43537616Y35834581D01*
X-43537616Y35834581D02*
X-43156664Y35834581D01*
X-43156664Y35834581D02*
X-43061426Y35786962D01*
X-43061426Y35786962D02*
X-43013807Y35739343D01*
X-43013807Y35739343D02*
X-42966188Y35644105D01*
X-42966188Y35644105D02*
X-42966188Y35501248D01*
X-42966188Y35501248D02*
X-43013807Y35406010D01*
X-43013807Y35406010D02*
X-43061426Y35358391D01*
X-43061426Y35358391D02*
X-43156664Y35310772D01*
X-43156664Y35310772D02*
X-43537616Y35310772D01*
X-42585235Y35120296D02*
X-42109045Y35120296D01*
X-42680473Y34834581D02*
X-42347140Y35834581D01*
X-42347140Y35834581D02*
X-42013807Y34834581D01*
X-41680473Y34834581D02*
X-41680473Y35834581D01*
X-41680473Y35834581D02*
X-41442378Y35834581D01*
X-41442378Y35834581D02*
X-41299521Y35786962D01*
X-41299521Y35786962D02*
X-41204283Y35691724D01*
X-41204283Y35691724D02*
X-41156664Y35596486D01*
X-41156664Y35596486D02*
X-41109045Y35406010D01*
X-41109045Y35406010D02*
X-41109045Y35263153D01*
X-41109045Y35263153D02*
X-41156664Y35072677D01*
X-41156664Y35072677D02*
X-41204283Y34977439D01*
X-41204283Y34977439D02*
X-41299521Y34882200D01*
X-41299521Y34882200D02*
X-41442378Y34834581D01*
X-41442378Y34834581D02*
X-41680473Y34834581D01*
X-40680473Y34834581D02*
X-40680473Y35834581D01*
X-40013807Y35834581D02*
X-39823331Y35834581D01*
X-39823331Y35834581D02*
X-39728093Y35786962D01*
X-39728093Y35786962D02*
X-39632855Y35691724D01*
X-39632855Y35691724D02*
X-39585236Y35501248D01*
X-39585236Y35501248D02*
X-39585236Y35167915D01*
X-39585236Y35167915D02*
X-39632855Y34977439D01*
X-39632855Y34977439D02*
X-39728093Y34882200D01*
X-39728093Y34882200D02*
X-39823331Y34834581D01*
X-39823331Y34834581D02*
X-40013807Y34834581D01*
X-40013807Y34834581D02*
X-40109045Y34882200D01*
X-40109045Y34882200D02*
X-40204283Y34977439D01*
X-40204283Y34977439D02*
X-40251902Y35167915D01*
X-40251902Y35167915D02*
X-40251902Y35501248D01*
X-40251902Y35501248D02*
X-40204283Y35691724D01*
X-40204283Y35691724D02*
X-40109045Y35786962D01*
X-40109045Y35786962D02*
X-40013807Y35834581D01*
X-39204283Y35739343D02*
X-39156664Y35786962D01*
X-39156664Y35786962D02*
X-39061426Y35834581D01*
X-39061426Y35834581D02*
X-38823331Y35834581D01*
X-38823331Y35834581D02*
X-38728093Y35786962D01*
X-38728093Y35786962D02*
X-38680474Y35739343D01*
X-38680474Y35739343D02*
X-38632855Y35644105D01*
X-38632855Y35644105D02*
X-38632855Y35548867D01*
X-38632855Y35548867D02*
X-38680474Y35406010D01*
X-38680474Y35406010D02*
X-39251902Y34834581D01*
X-39251902Y34834581D02*
X-38632855Y34834581D01*
X-37585235Y35834581D02*
X-37251902Y34834581D01*
X-37251902Y34834581D02*
X-36918569Y35834581D01*
X-36394759Y35834581D02*
X-36299521Y35834581D01*
X-36299521Y35834581D02*
X-36204283Y35786962D01*
X-36204283Y35786962D02*
X-36156664Y35739343D01*
X-36156664Y35739343D02*
X-36109045Y35644105D01*
X-36109045Y35644105D02*
X-36061426Y35453629D01*
X-36061426Y35453629D02*
X-36061426Y35215534D01*
X-36061426Y35215534D02*
X-36109045Y35025058D01*
X-36109045Y35025058D02*
X-36156664Y34929820D01*
X-36156664Y34929820D02*
X-36204283Y34882200D01*
X-36204283Y34882200D02*
X-36299521Y34834581D01*
X-36299521Y34834581D02*
X-36394759Y34834581D01*
X-36394759Y34834581D02*
X-36489997Y34882200D01*
X-36489997Y34882200D02*
X-36537616Y34929820D01*
X-36537616Y34929820D02*
X-36585235Y35025058D01*
X-36585235Y35025058D02*
X-36632854Y35215534D01*
X-36632854Y35215534D02*
X-36632854Y35453629D01*
X-36632854Y35453629D02*
X-36585235Y35644105D01*
X-36585235Y35644105D02*
X-36537616Y35739343D01*
X-36537616Y35739343D02*
X-36489997Y35786962D01*
X-36489997Y35786962D02*
X-36394759Y35834581D01*
X-35109045Y34834581D02*
X-35680473Y34834581D01*
X-35394759Y34834581D02*
X-35394759Y35834581D01*
X-35394759Y35834581D02*
X-35489997Y35691724D01*
X-35489997Y35691724D02*
X-35585235Y35596486D01*
X-35585235Y35596486D02*
X-35680473Y35548867D01*
%TO.C,J3*%
X29980000Y500000D02*
X30480000Y0D01*
X29980000Y-500000D02*
X30980000Y500000D01*
X29980000Y-500000D02*
X30980000Y-500000D01*
X30980000Y500000D02*
X29980000Y500000D01*
X30980000Y-500000D02*
X30480000Y0D01*
X31598034Y0D02*
G75*
G02*
X29361966Y0I-1118034J0D01*
G01*
X29361966Y0D02*
G75*
G02*
X31598034Y0I1118034J0D01*
G01*
%TO.C,J2*%
X-500000Y500000D02*
X0Y0D01*
X-500000Y-500000D02*
X500000Y500000D01*
X-500000Y-500000D02*
X500000Y-500000D01*
X500000Y500000D02*
X-500000Y500000D01*
X500000Y-500000D02*
X0Y0D01*
X1118034Y0D02*
G75*
G02*
X-1118034Y0I-1118034J0D01*
G01*
X-1118034Y0D02*
G75*
G02*
X1118034Y0I1118034J0D01*
G01*
%TD*%
M02*
