%TF.GenerationSoftware,KiCad,Pcbnew,9.0.0*%
%TF.CreationDate,2025-07-25T23:50:21+02:00*%
%TF.ProjectId,xioboxconn_empty,78696f62-6f78-4636-9f6e-6e5f656d7074,rev?*%
%TF.SameCoordinates,PX73b0b30PY6adbf50*%
%TF.FileFunction,Legend,Bot*%
%TF.FilePolarity,Positive*%
%FSLAX46Y46*%
G04 Gerber Fmt 4.6, Leading zero omitted, Abs format (unit mm)*
G04 Created by KiCad (PCBNEW 9.0.0) date 2025-07-25 23:50:21*
%MOMM*%
%LPD*%
G01*
G04 APERTURE LIST*
%ADD10C,0.270000*%
%ADD11C,0.000000*%
%ADD12C,0.100000*%
G04 APERTURE END LIST*
D10*
X-40078411Y50822260D02*
X-39848468Y50705758D01*
X-39184880Y50292897D01*
X-38451811Y51027364D01*
X-38037833Y51222423D01*
X-37821293Y51205960D01*
X-37301414Y51092243D01*
X-37167473Y51107870D01*
X-35796206Y51278931D01*
X-37170959Y50903186D01*
X-37614793Y50580741D01*
X-37859941Y50242252D01*
X-37932773Y49335328D01*
X-38346049Y48860100D01*
X-38469810Y48717783D01*
X-39141074Y48053915D01*
X-39947395Y48072755D01*
X-39972790Y48666577D01*
X-40004323Y49204316D01*
X-40629819Y49480994D01*
X-41311122Y49743302D01*
X-41369587Y49861901D01*
X-41971085Y50071747D01*
X-42024243Y50210718D01*
X-42695507Y50462702D01*
X-42736248Y50586323D01*
X-43247471Y51036295D01*
X-43293238Y51201770D01*
X-43308305Y51360554D01*
X-40078411Y50822260D01*
G36*
X-40078411Y50822260D02*
G01*
X-39848468Y50705758D01*
X-39184880Y50292897D01*
X-38451811Y51027364D01*
X-38037833Y51222423D01*
X-37821293Y51205960D01*
X-37301414Y51092243D01*
X-37167473Y51107870D01*
X-35796206Y51278931D01*
X-37170959Y50903186D01*
X-37614793Y50580741D01*
X-37859941Y50242252D01*
X-37932773Y49335328D01*
X-38346049Y48860100D01*
X-38469810Y48717783D01*
X-39141074Y48053915D01*
X-39947395Y48072755D01*
X-39972790Y48666577D01*
X-40004323Y49204316D01*
X-40629819Y49480994D01*
X-41311122Y49743302D01*
X-41369587Y49861901D01*
X-41971085Y50071747D01*
X-42024243Y50210718D01*
X-42695507Y50462702D01*
X-42736248Y50586323D01*
X-43247471Y51036295D01*
X-43293238Y51201770D01*
X-43308305Y51360554D01*
X-40078411Y50822260D01*
G37*
D11*
G36*
X-22213313Y50890407D02*
G01*
X-20902043Y49402778D01*
X-19559939Y50925430D01*
X-18851148Y50925430D01*
X-20549883Y49000526D01*
X-18851148Y47075338D01*
X-19559941Y47075338D01*
X-20902046Y48597854D01*
X-22244150Y47075338D01*
X-22953221Y47075338D01*
X-21254208Y49000526D01*
X-22953221Y50925430D01*
X-22244150Y50925430D01*
X-22213313Y50890407D01*
G37*
G36*
X-32742112Y47075338D02*
G01*
X-33353097Y47075338D01*
X-34968116Y49949724D01*
X-36578809Y47075338D01*
X-37189795Y47075338D01*
X-34968536Y51033284D01*
X-32742112Y47075338D01*
G37*
D10*
X-39947671Y48072891D02*
X-39947395Y48072755D01*
X-39947671Y48071919D01*
X-39947535Y48067593D01*
X-39948927Y48068430D01*
X-40307373Y47072767D01*
X-39947395Y48067593D01*
X-39141074Y48053915D01*
X-40317141Y47045560D01*
X-40317277Y47045560D01*
X-40317277Y47045420D01*
X-41305960Y46003578D01*
X-40854735Y47001609D01*
X-40725952Y47328657D01*
X-40227006Y48241023D01*
X-39972790Y48666577D01*
X-39947671Y48072891D01*
G36*
X-39947671Y48072891D02*
G01*
X-39947395Y48072755D01*
X-39947671Y48071919D01*
X-39947535Y48067593D01*
X-39948927Y48068430D01*
X-40307373Y47072767D01*
X-39947395Y48067593D01*
X-39141074Y48053915D01*
X-40317141Y47045560D01*
X-40317277Y47045560D01*
X-40317277Y47045420D01*
X-41305960Y46003578D01*
X-40854735Y47001609D01*
X-40725952Y47328657D01*
X-40227006Y48241023D01*
X-39972790Y48666577D01*
X-39947671Y48072891D01*
G37*
D11*
G36*
X-23183858Y47075338D02*
G01*
X-23795263Y47075338D01*
X-25410000Y49950000D01*
X-27020691Y47075338D01*
X-27631677Y47075338D01*
X-25410280Y51033284D01*
X-23183858Y47075338D01*
G37*
G36*
X-30088442Y50923193D02*
G01*
X-29991799Y50916505D01*
X-29896791Y50905379D01*
X-29803451Y50889826D01*
X-29711810Y50869859D01*
X-29621900Y50845490D01*
X-29533752Y50816732D01*
X-29447397Y50783597D01*
X-29362868Y50746098D01*
X-29280195Y50704247D01*
X-29199410Y50658056D01*
X-29120545Y50607538D01*
X-29043631Y50552705D01*
X-28968700Y50493570D01*
X-28895783Y50430144D01*
X-28824912Y50362441D01*
X-28757202Y50291563D01*
X-28693771Y50218639D01*
X-28634630Y50143701D01*
X-28579793Y50066780D01*
X-28529272Y49987907D01*
X-28483079Y49907114D01*
X-28441227Y49824433D01*
X-28403727Y49739895D01*
X-28370593Y49653531D01*
X-28341836Y49565373D01*
X-28317470Y49475454D01*
X-28297506Y49383803D01*
X-28281957Y49290453D01*
X-28270835Y49195435D01*
X-28264153Y49098781D01*
X-28261923Y49000522D01*
X-28261923Y47075334D01*
X-28774262Y47075334D01*
X-28774262Y49000522D01*
X-28774987Y49048304D01*
X-28777163Y49095569D01*
X-28780791Y49142327D01*
X-28785874Y49188590D01*
X-28792413Y49234367D01*
X-28800410Y49279670D01*
X-28809866Y49324511D01*
X-28820784Y49368899D01*
X-28833166Y49412846D01*
X-28847012Y49456363D01*
X-28862325Y49499460D01*
X-28879106Y49542149D01*
X-28897357Y49584440D01*
X-28917080Y49626344D01*
X-28938277Y49667873D01*
X-28960950Y49709037D01*
X-28960950Y49709309D01*
X-28985431Y49749699D01*
X-29010920Y49788942D01*
X-29037423Y49827043D01*
X-29064948Y49864010D01*
X-29093503Y49899851D01*
X-29123095Y49934573D01*
X-29153732Y49968182D01*
X-29185422Y50000686D01*
X-29218172Y50032092D01*
X-29251991Y50062407D01*
X-29286884Y50091639D01*
X-29322861Y50119794D01*
X-29359929Y50146880D01*
X-29398096Y50172903D01*
X-29437368Y50197872D01*
X-29477755Y50221792D01*
X-29478295Y50222064D01*
X-29478567Y50222336D01*
X-29519728Y50245529D01*
X-29561254Y50267206D01*
X-29603157Y50287372D01*
X-29645445Y50306027D01*
X-29688130Y50323176D01*
X-29731221Y50338820D01*
X-29774730Y50352962D01*
X-29818667Y50365604D01*
X-29863041Y50376750D01*
X-29907864Y50386401D01*
X-29953146Y50394561D01*
X-29998897Y50401231D01*
X-30045128Y50406414D01*
X-30091848Y50410114D01*
X-30139070Y50412331D01*
X-30186802Y50413070D01*
X-30234534Y50412331D01*
X-30281755Y50410114D01*
X-30328476Y50406414D01*
X-30374707Y50401231D01*
X-30420458Y50394561D01*
X-30465740Y50386401D01*
X-30510563Y50376750D01*
X-30554938Y50365604D01*
X-30598875Y50352962D01*
X-30642384Y50338820D01*
X-30685475Y50323176D01*
X-30728160Y50306027D01*
X-30770448Y50287372D01*
X-30812350Y50267206D01*
X-30853876Y50245529D01*
X-30895037Y50222336D01*
X-30895308Y50222064D01*
X-30895848Y50221792D01*
X-30936242Y50197859D01*
X-30975478Y50172883D01*
X-31013566Y50146854D01*
X-31050514Y50119767D01*
X-31086330Y50091613D01*
X-31121022Y50062384D01*
X-31154600Y50032073D01*
X-31187072Y50000672D01*
X-31218446Y49968174D01*
X-31248732Y49934570D01*
X-31277936Y49899854D01*
X-31306068Y49864017D01*
X-31333137Y49827052D01*
X-31359151Y49788950D01*
X-31384118Y49749705D01*
X-31408047Y49709309D01*
X-31408319Y49709037D01*
X-31408591Y49708497D01*
X-31431785Y49667339D01*
X-31453467Y49625822D01*
X-31473639Y49583933D01*
X-31492303Y49541663D01*
X-31509462Y49498999D01*
X-31525118Y49455931D01*
X-31539272Y49412448D01*
X-31551927Y49368537D01*
X-31563085Y49324189D01*
X-31572749Y49279391D01*
X-31580920Y49234133D01*
X-31587600Y49188403D01*
X-31592792Y49142191D01*
X-31596498Y49095484D01*
X-31598720Y49048271D01*
X-31599461Y49000543D01*
X-31599461Y47075355D01*
X-32111800Y47075355D01*
X-32111800Y49000522D01*
X-32109567Y49098781D01*
X-32102875Y49195435D01*
X-32091740Y49290453D01*
X-32076173Y49383803D01*
X-32056188Y49475454D01*
X-32031798Y49565373D01*
X-32003016Y49653531D01*
X-31969855Y49739895D01*
X-31932330Y49824433D01*
X-31890452Y49907114D01*
X-31844235Y49987907D01*
X-31793693Y50066780D01*
X-31738838Y50143701D01*
X-31679684Y50218639D01*
X-31616244Y50291563D01*
X-31548531Y50362441D01*
X-31477659Y50430144D01*
X-31404742Y50493570D01*
X-31329811Y50552705D01*
X-31252897Y50607538D01*
X-31174032Y50658056D01*
X-31093248Y50704247D01*
X-31010575Y50746098D01*
X-30926045Y50783597D01*
X-30839691Y50816732D01*
X-30751543Y50845490D01*
X-30661632Y50869859D01*
X-30569991Y50889826D01*
X-30476651Y50905379D01*
X-30381644Y50916505D01*
X-30285000Y50923193D01*
X-30186752Y50925430D01*
X-30186690Y50925430D01*
X-30088442Y50923193D01*
G37*
D12*
X-16185313Y38607223D02*
X-16185313Y39907223D01*
X-16185313Y39907223D02*
X-16680551Y39907223D01*
X-16680551Y39907223D02*
X-16804361Y39845318D01*
X-16804361Y39845318D02*
X-16866266Y39783413D01*
X-16866266Y39783413D02*
X-16928170Y39659604D01*
X-16928170Y39659604D02*
X-16928170Y39473889D01*
X-16928170Y39473889D02*
X-16866266Y39350080D01*
X-16866266Y39350080D02*
X-16804361Y39288175D01*
X-16804361Y39288175D02*
X-16680551Y39226270D01*
X-16680551Y39226270D02*
X-16185313Y39226270D01*
X-17423409Y38978651D02*
X-18042456Y38978651D01*
X-17299599Y38607223D02*
X-17732932Y39907223D01*
X-17732932Y39907223D02*
X-18166266Y38607223D01*
X-18599599Y38607223D02*
X-18599599Y39907223D01*
X-18599599Y39907223D02*
X-18909123Y39907223D01*
X-18909123Y39907223D02*
X-19094837Y39845318D01*
X-19094837Y39845318D02*
X-19218647Y39721508D01*
X-19218647Y39721508D02*
X-19280552Y39597699D01*
X-19280552Y39597699D02*
X-19342456Y39350080D01*
X-19342456Y39350080D02*
X-19342456Y39164366D01*
X-19342456Y39164366D02*
X-19280552Y38916747D01*
X-19280552Y38916747D02*
X-19218647Y38792937D01*
X-19218647Y38792937D02*
X-19094837Y38669127D01*
X-19094837Y38669127D02*
X-18909123Y38607223D01*
X-18909123Y38607223D02*
X-18599599Y38607223D01*
X-19899599Y38607223D02*
X-19899599Y39907223D01*
X-20766266Y39907223D02*
X-21013885Y39907223D01*
X-21013885Y39907223D02*
X-21137695Y39845318D01*
X-21137695Y39845318D02*
X-21261504Y39721508D01*
X-21261504Y39721508D02*
X-21323409Y39473889D01*
X-21323409Y39473889D02*
X-21323409Y39040556D01*
X-21323409Y39040556D02*
X-21261504Y38792937D01*
X-21261504Y38792937D02*
X-21137695Y38669127D01*
X-21137695Y38669127D02*
X-21013885Y38607223D01*
X-21013885Y38607223D02*
X-20766266Y38607223D01*
X-20766266Y38607223D02*
X-20642457Y38669127D01*
X-20642457Y38669127D02*
X-20518647Y38792937D01*
X-20518647Y38792937D02*
X-20456743Y39040556D01*
X-20456743Y39040556D02*
X-20456743Y39473889D01*
X-20456743Y39473889D02*
X-20518647Y39721508D01*
X-20518647Y39721508D02*
X-20642457Y39845318D01*
X-20642457Y39845318D02*
X-20766266Y39907223D01*
X-21571028Y38483413D02*
X-22561505Y38483413D01*
X-22685314Y39907223D02*
X-23118647Y38607223D01*
X-23118647Y38607223D02*
X-23551981Y39907223D01*
X-23861505Y39907223D02*
X-24666267Y39907223D01*
X-24666267Y39907223D02*
X-24232933Y39411985D01*
X-24232933Y39411985D02*
X-24418648Y39411985D01*
X-24418648Y39411985D02*
X-24542457Y39350080D01*
X-24542457Y39350080D02*
X-24604362Y39288175D01*
X-24604362Y39288175D02*
X-24666267Y39164366D01*
X-24666267Y39164366D02*
X-24666267Y38854842D01*
X-24666267Y38854842D02*
X-24604362Y38731032D01*
X-24604362Y38731032D02*
X-24542457Y38669127D01*
X-24542457Y38669127D02*
X-24418648Y38607223D01*
X-24418648Y38607223D02*
X-24047219Y38607223D01*
X-24047219Y38607223D02*
X-23923410Y38669127D01*
X-23923410Y38669127D02*
X-23861505Y38731032D01*
X-16185313Y36514296D02*
X-16185313Y37814296D01*
X-16185313Y37814296D02*
X-16680551Y37814296D01*
X-16680551Y37814296D02*
X-16804361Y37752391D01*
X-16804361Y37752391D02*
X-16866266Y37690486D01*
X-16866266Y37690486D02*
X-16928170Y37566677D01*
X-16928170Y37566677D02*
X-16928170Y37380962D01*
X-16928170Y37380962D02*
X-16866266Y37257153D01*
X-16866266Y37257153D02*
X-16804361Y37195248D01*
X-16804361Y37195248D02*
X-16680551Y37133343D01*
X-16680551Y37133343D02*
X-16185313Y37133343D01*
X-18228170Y36638105D02*
X-18166266Y36576200D01*
X-18166266Y36576200D02*
X-17980551Y36514296D01*
X-17980551Y36514296D02*
X-17856742Y36514296D01*
X-17856742Y36514296D02*
X-17671028Y36576200D01*
X-17671028Y36576200D02*
X-17547218Y36700010D01*
X-17547218Y36700010D02*
X-17485313Y36823820D01*
X-17485313Y36823820D02*
X-17423409Y37071439D01*
X-17423409Y37071439D02*
X-17423409Y37257153D01*
X-17423409Y37257153D02*
X-17485313Y37504772D01*
X-17485313Y37504772D02*
X-17547218Y37628581D01*
X-17547218Y37628581D02*
X-17671028Y37752391D01*
X-17671028Y37752391D02*
X-17856742Y37814296D01*
X-17856742Y37814296D02*
X-17980551Y37814296D01*
X-17980551Y37814296D02*
X-18166266Y37752391D01*
X-18166266Y37752391D02*
X-18228170Y37690486D01*
X-19218647Y37195248D02*
X-19404361Y37133343D01*
X-19404361Y37133343D02*
X-19466266Y37071439D01*
X-19466266Y37071439D02*
X-19528170Y36947629D01*
X-19528170Y36947629D02*
X-19528170Y36761915D01*
X-19528170Y36761915D02*
X-19466266Y36638105D01*
X-19466266Y36638105D02*
X-19404361Y36576200D01*
X-19404361Y36576200D02*
X-19280551Y36514296D01*
X-19280551Y36514296D02*
X-18785313Y36514296D01*
X-18785313Y36514296D02*
X-18785313Y37814296D01*
X-18785313Y37814296D02*
X-19218647Y37814296D01*
X-19218647Y37814296D02*
X-19342456Y37752391D01*
X-19342456Y37752391D02*
X-19404361Y37690486D01*
X-19404361Y37690486D02*
X-19466266Y37566677D01*
X-19466266Y37566677D02*
X-19466266Y37442867D01*
X-19466266Y37442867D02*
X-19404361Y37319058D01*
X-19404361Y37319058D02*
X-19342456Y37257153D01*
X-19342456Y37257153D02*
X-19218647Y37195248D01*
X-19218647Y37195248D02*
X-18785313Y37195248D01*
X-20085313Y37009534D02*
X-21075789Y37009534D01*
X-21509123Y37814296D02*
X-21942456Y36514296D01*
X-21942456Y36514296D02*
X-22375790Y37814296D01*
X-23056742Y37814296D02*
X-23180552Y37814296D01*
X-23180552Y37814296D02*
X-23304361Y37752391D01*
X-23304361Y37752391D02*
X-23366266Y37690486D01*
X-23366266Y37690486D02*
X-23428171Y37566677D01*
X-23428171Y37566677D02*
X-23490076Y37319058D01*
X-23490076Y37319058D02*
X-23490076Y37009534D01*
X-23490076Y37009534D02*
X-23428171Y36761915D01*
X-23428171Y36761915D02*
X-23366266Y36638105D01*
X-23366266Y36638105D02*
X-23304361Y36576200D01*
X-23304361Y36576200D02*
X-23180552Y36514296D01*
X-23180552Y36514296D02*
X-23056742Y36514296D01*
X-23056742Y36514296D02*
X-22932933Y36576200D01*
X-22932933Y36576200D02*
X-22871028Y36638105D01*
X-22871028Y36638105D02*
X-22809123Y36761915D01*
X-22809123Y36761915D02*
X-22747219Y37009534D01*
X-22747219Y37009534D02*
X-22747219Y37319058D01*
X-22747219Y37319058D02*
X-22809123Y37566677D01*
X-22809123Y37566677D02*
X-22871028Y37690486D01*
X-22871028Y37690486D02*
X-22932933Y37752391D01*
X-22932933Y37752391D02*
X-23056742Y37814296D01*
X-24728171Y36514296D02*
X-23985314Y36514296D01*
X-24356742Y36514296D02*
X-24356742Y37814296D01*
X-24356742Y37814296D02*
X-24232933Y37628581D01*
X-24232933Y37628581D02*
X-24109123Y37504772D01*
X-24109123Y37504772D02*
X-23985314Y37442867D01*
X-25285313Y36638105D02*
X-25347218Y36576200D01*
X-25347218Y36576200D02*
X-25285313Y36514296D01*
X-25285313Y36514296D02*
X-25223409Y36576200D01*
X-25223409Y36576200D02*
X-25285313Y36638105D01*
X-25285313Y36638105D02*
X-25285313Y36514296D01*
X-26151980Y37814296D02*
X-26275790Y37814296D01*
X-26275790Y37814296D02*
X-26399599Y37752391D01*
X-26399599Y37752391D02*
X-26461504Y37690486D01*
X-26461504Y37690486D02*
X-26523409Y37566677D01*
X-26523409Y37566677D02*
X-26585314Y37319058D01*
X-26585314Y37319058D02*
X-26585314Y37009534D01*
X-26585314Y37009534D02*
X-26523409Y36761915D01*
X-26523409Y36761915D02*
X-26461504Y36638105D01*
X-26461504Y36638105D02*
X-26399599Y36576200D01*
X-26399599Y36576200D02*
X-26275790Y36514296D01*
X-26275790Y36514296D02*
X-26151980Y36514296D01*
X-26151980Y36514296D02*
X-26028171Y36576200D01*
X-26028171Y36576200D02*
X-25966266Y36638105D01*
X-25966266Y36638105D02*
X-25904361Y36761915D01*
X-25904361Y36761915D02*
X-25842457Y37009534D01*
X-25842457Y37009534D02*
X-25842457Y37319058D01*
X-25842457Y37319058D02*
X-25904361Y37566677D01*
X-25904361Y37566677D02*
X-25966266Y37690486D01*
X-25966266Y37690486D02*
X-26028171Y37752391D01*
X-26028171Y37752391D02*
X-26151980Y37814296D01*
X-27390075Y37814296D02*
X-27513885Y37814296D01*
X-27513885Y37814296D02*
X-27637694Y37752391D01*
X-27637694Y37752391D02*
X-27699599Y37690486D01*
X-27699599Y37690486D02*
X-27761504Y37566677D01*
X-27761504Y37566677D02*
X-27823409Y37319058D01*
X-27823409Y37319058D02*
X-27823409Y37009534D01*
X-27823409Y37009534D02*
X-27761504Y36761915D01*
X-27761504Y36761915D02*
X-27699599Y36638105D01*
X-27699599Y36638105D02*
X-27637694Y36576200D01*
X-27637694Y36576200D02*
X-27513885Y36514296D01*
X-27513885Y36514296D02*
X-27390075Y36514296D01*
X-27390075Y36514296D02*
X-27266266Y36576200D01*
X-27266266Y36576200D02*
X-27204361Y36638105D01*
X-27204361Y36638105D02*
X-27142456Y36761915D01*
X-27142456Y36761915D02*
X-27080552Y37009534D01*
X-27080552Y37009534D02*
X-27080552Y37319058D01*
X-27080552Y37319058D02*
X-27142456Y37566677D01*
X-27142456Y37566677D02*
X-27204361Y37690486D01*
X-27204361Y37690486D02*
X-27266266Y37752391D01*
X-27266266Y37752391D02*
X-27390075Y37814296D01*
X-28380551Y36638105D02*
X-28442456Y36576200D01*
X-28442456Y36576200D02*
X-28380551Y36514296D01*
X-28380551Y36514296D02*
X-28318647Y36576200D01*
X-28318647Y36576200D02*
X-28380551Y36638105D01*
X-28380551Y36638105D02*
X-28380551Y36514296D01*
X-29247218Y37814296D02*
X-29371028Y37814296D01*
X-29371028Y37814296D02*
X-29494837Y37752391D01*
X-29494837Y37752391D02*
X-29556742Y37690486D01*
X-29556742Y37690486D02*
X-29618647Y37566677D01*
X-29618647Y37566677D02*
X-29680552Y37319058D01*
X-29680552Y37319058D02*
X-29680552Y37009534D01*
X-29680552Y37009534D02*
X-29618647Y36761915D01*
X-29618647Y36761915D02*
X-29556742Y36638105D01*
X-29556742Y36638105D02*
X-29494837Y36576200D01*
X-29494837Y36576200D02*
X-29371028Y36514296D01*
X-29371028Y36514296D02*
X-29247218Y36514296D01*
X-29247218Y36514296D02*
X-29123409Y36576200D01*
X-29123409Y36576200D02*
X-29061504Y36638105D01*
X-29061504Y36638105D02*
X-28999599Y36761915D01*
X-28999599Y36761915D02*
X-28937695Y37009534D01*
X-28937695Y37009534D02*
X-28937695Y37319058D01*
X-28937695Y37319058D02*
X-28999599Y37566677D01*
X-28999599Y37566677D02*
X-29061504Y37690486D01*
X-29061504Y37690486D02*
X-29123409Y37752391D01*
X-29123409Y37752391D02*
X-29247218Y37814296D01*
X-30485313Y37814296D02*
X-30609123Y37814296D01*
X-30609123Y37814296D02*
X-30732932Y37752391D01*
X-30732932Y37752391D02*
X-30794837Y37690486D01*
X-30794837Y37690486D02*
X-30856742Y37566677D01*
X-30856742Y37566677D02*
X-30918647Y37319058D01*
X-30918647Y37319058D02*
X-30918647Y37009534D01*
X-30918647Y37009534D02*
X-30856742Y36761915D01*
X-30856742Y36761915D02*
X-30794837Y36638105D01*
X-30794837Y36638105D02*
X-30732932Y36576200D01*
X-30732932Y36576200D02*
X-30609123Y36514296D01*
X-30609123Y36514296D02*
X-30485313Y36514296D01*
X-30485313Y36514296D02*
X-30361504Y36576200D01*
X-30361504Y36576200D02*
X-30299599Y36638105D01*
X-30299599Y36638105D02*
X-30237694Y36761915D01*
X-30237694Y36761915D02*
X-30175790Y37009534D01*
X-30175790Y37009534D02*
X-30175790Y37319058D01*
X-30175790Y37319058D02*
X-30237694Y37566677D01*
X-30237694Y37566677D02*
X-30299599Y37690486D01*
X-30299599Y37690486D02*
X-30361504Y37752391D01*
X-30361504Y37752391D02*
X-30485313Y37814296D01*
X-31475789Y37009534D02*
X-32466265Y37009534D01*
X-33332932Y37133343D02*
X-33332932Y36514296D01*
X-32899599Y37814296D02*
X-33332932Y37133343D01*
X-33332932Y37133343D02*
X-33766266Y37814296D01*
X-34137695Y37690486D02*
X-34199599Y37752391D01*
X-34199599Y37752391D02*
X-34323409Y37814296D01*
X-34323409Y37814296D02*
X-34632933Y37814296D01*
X-34632933Y37814296D02*
X-34756742Y37752391D01*
X-34756742Y37752391D02*
X-34818647Y37690486D01*
X-34818647Y37690486D02*
X-34880552Y37566677D01*
X-34880552Y37566677D02*
X-34880552Y37442867D01*
X-34880552Y37442867D02*
X-34818647Y37257153D01*
X-34818647Y37257153D02*
X-34075790Y36514296D01*
X-34075790Y36514296D02*
X-34880552Y36514296D01*
X-35685313Y37814296D02*
X-35809123Y37814296D01*
X-35809123Y37814296D02*
X-35932932Y37752391D01*
X-35932932Y37752391D02*
X-35994837Y37690486D01*
X-35994837Y37690486D02*
X-36056742Y37566677D01*
X-36056742Y37566677D02*
X-36118647Y37319058D01*
X-36118647Y37319058D02*
X-36118647Y37009534D01*
X-36118647Y37009534D02*
X-36056742Y36761915D01*
X-36056742Y36761915D02*
X-35994837Y36638105D01*
X-35994837Y36638105D02*
X-35932932Y36576200D01*
X-35932932Y36576200D02*
X-35809123Y36514296D01*
X-35809123Y36514296D02*
X-35685313Y36514296D01*
X-35685313Y36514296D02*
X-35561504Y36576200D01*
X-35561504Y36576200D02*
X-35499599Y36638105D01*
X-35499599Y36638105D02*
X-35437694Y36761915D01*
X-35437694Y36761915D02*
X-35375790Y37009534D01*
X-35375790Y37009534D02*
X-35375790Y37319058D01*
X-35375790Y37319058D02*
X-35437694Y37566677D01*
X-35437694Y37566677D02*
X-35499599Y37690486D01*
X-35499599Y37690486D02*
X-35561504Y37752391D01*
X-35561504Y37752391D02*
X-35685313Y37814296D01*
X-36613885Y37690486D02*
X-36675789Y37752391D01*
X-36675789Y37752391D02*
X-36799599Y37814296D01*
X-36799599Y37814296D02*
X-37109123Y37814296D01*
X-37109123Y37814296D02*
X-37232932Y37752391D01*
X-37232932Y37752391D02*
X-37294837Y37690486D01*
X-37294837Y37690486D02*
X-37356742Y37566677D01*
X-37356742Y37566677D02*
X-37356742Y37442867D01*
X-37356742Y37442867D02*
X-37294837Y37257153D01*
X-37294837Y37257153D02*
X-36551980Y36514296D01*
X-36551980Y36514296D02*
X-37356742Y36514296D01*
X-38532932Y37814296D02*
X-37913884Y37814296D01*
X-37913884Y37814296D02*
X-37851980Y37195248D01*
X-37851980Y37195248D02*
X-37913884Y37257153D01*
X-37913884Y37257153D02*
X-38037694Y37319058D01*
X-38037694Y37319058D02*
X-38347218Y37319058D01*
X-38347218Y37319058D02*
X-38471027Y37257153D01*
X-38471027Y37257153D02*
X-38532932Y37195248D01*
X-38532932Y37195248D02*
X-38594837Y37071439D01*
X-38594837Y37071439D02*
X-38594837Y36761915D01*
X-38594837Y36761915D02*
X-38532932Y36638105D01*
X-38532932Y36638105D02*
X-38471027Y36576200D01*
X-38471027Y36576200D02*
X-38347218Y36514296D01*
X-38347218Y36514296D02*
X-38037694Y36514296D01*
X-38037694Y36514296D02*
X-37913884Y36576200D01*
X-37913884Y36576200D02*
X-37851980Y36638105D01*
M02*
